# xmcd CD database file
#
# Track frame offsets:
#	150
#	20661
#	48079
#	83974
#	106915
#	126124
#	147186
#	167872
#	218215
#	244078
#	290342
#	310173
#	331994
#
# Disc length: 4737 seconds
#
# Revision: 2
# Processed by: cddbd v1.5.1PL0 Copyright (c) Steve Scherf et al.
# Submitted via: CDex 1.51
#
DISCID=b6127f0d
DTITLE=Maynard Ferguson - 1
DYEAR=2003
DGENRE=Jazz
TTITLE0=Chamelon 
TTITLE1=Gospel John
TTITLE2=La Fiesta
TTITLE3=Superbone Meets The Bad Man
TTITLE4=It Dont Mean A Thing If It Ain't Got That Swing
TTITLE5=Admiral's Horn
TTITLE6=Body and Soul
TTITLE7=Brazil
TTITLE8=Malaguena
TTITLE9=Caravan
TTITLE10=Spinning Wheel
TTITLE11=Theme from Shaft
TTITLE12=Send In The Clowns
EXTD=YEAR: 2003
EXTT0=
EXTT1=
EXTT2=
EXTT3=
EXTT4=
EXTT5=
EXTT6=
EXTT7=
EXTT8=
EXTT9=
EXTT10=
EXTT11=
EXTT12=
PLAYORDER=
